<svg width="30" height="30" viewBox="0 0 30 30" fill="none" xmlns="http://www.w3.org/2000/svg">
<g clip-path="url(#clip0)">
<path d="M30.0001 15.092C30.0001 6.75579 23.2838 -0.00170898 15.0001 -0.00170898C6.71259 0.000166016 -0.00366211 6.75579 -0.00366211 15.0939C-0.00366211 22.6258 5.48259 28.8695 12.6526 30.002V19.4552H8.84634V15.0939H12.6563V11.7658C12.6563 7.98392 14.897 5.89517 18.3226 5.89517C19.9651 5.89517 21.6807 6.18954 21.6807 6.18954V9.90204H19.7888C17.927 9.90204 17.3457 11.0664 17.3457 12.2608V15.092H21.5045L20.8407 19.4533H17.3438V30.0002C24.5138 28.8677 30.0001 22.6239 30.0001 15.092Z" fill="black"/>
</g>
<defs>
<clipPath id="clip0">
<rect width="30" height="30" fill="white"/>
</clipPath>
</defs>
</svg>
